<svg width="1024" height="1024" viewBox="245 150 534 534" fill="none" xmlns="http://www.w3.org/2000/svg">
  <defs>
    <radialGradient id="aura" cx="0" cy="0" r="1" gradientUnits="userSpaceOnUse" gradientTransform="translate(512 454) rotate(90) scale(335)">
      <stop offset="0" stop-color="#83F7B1" stop-opacity="0.58"/>
      <stop offset="0.42" stop-color="#10C8AA" stop-opacity="0.38"/>
      <stop offset="1" stop-color="#0B1F22" stop-opacity="0"/>
    </radialGradient>
    <linearGradient id="leafMain" x1="512" y1="198" x2="512" y2="590" gradientUnits="userSpaceOnUse">
      <stop offset="0" stop-color="#8DF6B0"/>
      <stop offset="0.52" stop-color="#16D4B8"/>
      <stop offset="1" stop-color="#00726F"/>
    </linearGradient>
    <linearGradient id="leafLight" x1="417" y1="240" x2="585" y2="581" gradientUnits="userSpaceOnUse">
      <stop offset="0" stop-color="#A1FDB5"/>
      <stop offset="1" stop-color="#00B0A6"/>
    </linearGradient>
    <linearGradient id="leafDark" x1="264" y1="361" x2="746" y2="603" gradientUnits="userSpaceOnUse">
      <stop offset="0" stop-color="#00BFB2"/>
      <stop offset="1" stop-color="#005760"/>
    </linearGradient>
    <linearGradient id="leafMid" x1="302" y1="307" x2="725" y2="568" gradientUnits="userSpaceOnUse">
      <stop offset="0" stop-color="#67F3A7"/>
      <stop offset="1" stop-color="#008B82"/>
    </linearGradient>
    <filter id="softGlow" x="110" y="52" width="804" height="760" filterUnits="userSpaceOnUse" color-interpolation-filters="sRGB">
      <feGaussianBlur stdDeviation="38" result="blur"/>
      <feColorMatrix in="blur" type="matrix" values="0 0 0 0 0.08  0 0 0 0 0.95  0 0 0 0 0.68  0 0 0 0.95 0"/>
    </filter>
    <filter id="shadow" x="198" y="160" width="628" height="515" filterUnits="userSpaceOnUse" color-interpolation-filters="sRGB">
      <feDropShadow dx="0" dy="18" stdDeviation="20" flood-color="#001B1E" flood-opacity="0.34"/>
    </filter>
  </defs>

  <rect x="245" y="150" width="534" height="534" fill="transparent"/>
  <circle cx="512" cy="454" r="355" fill="url(#aura)"/>

  <g filter="url(#softGlow)" opacity="0.72">
    <path d="M512 199C459 237 428 300 428 372C428 458 462 527 512 591C562 527 596 458 596 372C596 300 565 237 512 199Z" fill="#39E9A8"/>
    <path d="M322 348C398 329 470 358 512 438C456 491 386 510 298 489C304 425 304 386 322 348Z" fill="#00CBB5"/>
    <path d="M702 348C626 329 554 358 512 438C568 491 638 510 726 489C720 425 720 386 702 348Z" fill="#00CBB5"/>
  </g>

  <g filter="url(#shadow)">
    <!-- back lower leaves -->
    <path d="M292 352C377 326 452 351 512 429C440 465 359 466 284 425C280 394 282 371 292 352Z" fill="url(#leafDark)" stroke="#06484D" stroke-width="1.6"/>
    <path d="M732 352C647 326 572 351 512 429C584 465 665 466 740 425C744 394 742 371 732 352Z" fill="url(#leafDark)" stroke="#06484D" stroke-width="1.6"/>

    <!-- outer side leaves -->
    <path d="M362 333C438 341 484 383 512 457C441 474 372 453 310 396C323 367 340 347 362 333Z" fill="url(#leafMid)" stroke="#067C78" stroke-width="1.6"/>
    <path d="M662 333C586 341 540 383 512 457C583 474 652 453 714 396C701 367 684 347 662 333Z" fill="url(#leafMid)" stroke="#067C78" stroke-width="1.6"/>

    <!-- central tall leaf -->
    <path d="M512 198C455 240 424 303 424 377C424 460 460 530 512 592C564 530 600 460 600 377C600 303 569 240 512 198Z" fill="url(#leafMain)" stroke="#067C78" stroke-width="1.8"/>
    <path d="M512 217V592" stroke="#0A6667" stroke-width="2.2" stroke-linecap="round" opacity="0.8"/>

    <!-- inner leaves -->
    <path d="M444 247C503 286 528 350 512 441C460 403 424 343 444 247Z" fill="url(#leafLight)" stroke="#19A084" stroke-width="1.5"/>
    <path d="M580 247C521 286 496 350 512 441C564 403 600 343 580 247Z" fill="url(#leafLight)" stroke="#19A084" stroke-width="1.5"/>
    <path d="M408 309C465 329 502 376 512 459C450 445 401 395 408 309Z" fill="#52EFA0" fill-opacity="0.84" stroke="#14957F" stroke-width="1.5"/>
    <path d="M616 309C559 329 522 376 512 459C574 445 623 395 616 309Z" fill="#52EFA0" fill-opacity="0.84" stroke="#14957F" stroke-width="1.5"/>

    <!-- lower cradle leaves -->
    <path d="M273 443C361 431 445 452 512 524C428 546 345 534 278 491C272 472 270 456 273 443Z" fill="#00A69C" fill-opacity="0.95" stroke="#05555A" stroke-width="1.6"/>
    <path d="M751 443C663 431 579 452 512 524C596 546 679 534 746 491C752 472 754 456 751 443Z" fill="#00A69C" fill-opacity="0.95" stroke="#05555A" stroke-width="1.6"/>
    <path d="M358 455C424 443 477 462 512 524C447 535 389 518 341 477C345 468 350 461 358 455Z" fill="#3AE398" stroke="#05706D" stroke-width="1.4"/>
    <path d="M666 455C600 443 547 462 512 524C577 535 635 518 683 477C679 468 674 461 666 455Z" fill="#3AE398" stroke="#05706D" stroke-width="1.4"/>
  </g>

  <!-- sparkle -->
  <g opacity="0.92">
    <path d="M629 268C639 309 649 319 690 329C649 339 639 349 629 390C619 349 609 339 568 329C609 319 619 309 629 268Z" fill="#9DFFD0" stroke="#48DBB2" stroke-width="1.5"/>
    <path d="M588 314C594 337 600 343 623 349C600 355 594 361 588 384C582 361 576 355 553 349C576 343 582 337 588 314Z" fill="#D3FFE7" fill-opacity="0.8"/>
  </g>
</svg>
